<svg xmlns="http://www.w3.org/2000/svg" width="599" height="493" viewBox="0 0 599 493"><defs><style>@import url(https://fonts.googleapis.com/css?family=Open+Sans:bold,italic,bolditalic%7CPT+Mono);@font-face{font-family:&quot;PT Mono&quot;;font-weight:700;font-style:normal;src:local(&quot;PT MonoBold&quot;),url(/font/PTMonoBold.woff2)format(&quot;woff2&quot;),url(/font/PTMonoBold.woff)format(&quot;woff&quot;),url(/font/PTMonoBold.ttf)format(&quot;truetype&quot;)}</style></defs><g id="combined" fill="none" fill-rule="evenodd" stroke="none" stroke-width="1"><g id="ifelse_task.svg"><path id="Path-1218-Copy" fill="#C06334" fill-rule="nonzero" d="M529.5 326.5v93h8l-9.5 19-9.5-19h8v-90h-82v-3zm-157-195v126h8l-9.5 19-9.5-19h8v-123h-82v-3z"/><g id="Rectangle-1-+-Корень" transform="translate(180 4)"><rect id="Rectangle-1" width="78" height="28" x="1" y="1" fill="#FBF2EC" stroke="#DBAF88" stroke-width="2" rx="14"/><text id="Begin" fill="#AF6E24" font-family="OpenSans-Regular, Open Sans" font-size="14" font-weight="normal"><tspan x="21" y="20">البداية</tspan></text></g><g id="Rectangle-1-+-Корень-Copy-2" transform="translate(0 243)"><rect width="131" height="49" x="1" y="1" fill="#FBF2EC" stroke="#DBAF88" stroke-width="2" rx="24.5"/><text id="Canceled" fill="#AF6E24" font-family="OpenSans-Regular, Open Sans" font-size="14" font-weight="normal"><tspan x="50.647" y="29">الغيت</tspan></text></g><g id="Rectangle-1-+-Корень-Copy-5" transform="translate(150 438)"><rect width="131" height="49" x="1" y="1" fill="#FBF2EC" stroke="#DBAF88" stroke-width="2" rx="24.5"/><text fill="#AF6E24" font-family="OpenSans-Regular, Open Sans" font-size="14"><tspan x="50" y="29">الغيت</tspan></text></g><g id="Rectangle-1-+-Корень-Copy-6" transform="translate(458 438)"><rect width="131" height="49" x="1" y="1" fill="#FBF2EC" stroke="#DBAF88" stroke-width="2" rx="24.5"/><text id="Welcome!" fill="#AF6E24" font-family="OpenSans-Regular, Open Sans" font-size="14" font-weight="normal"><tspan x="50" y="29">!مرحبا</tspan></text></g><g id="Rectangle-1-+-Корень-Copy-4" transform="translate(154 243)"><rect width="131" height="49" x="1" y="1" fill="#FBF2EC" stroke="#DBAF88" stroke-width="2" rx="24.5"/><text id="I-don't-know-you" fill="#AF6E24" font-family="OpenSans-Regular, Open Sans" font-size="14" font-weight="normal"><tspan x="40.564" y="28">لا أعرفك</tspan></text></g><g id="Rectangle-1-+-Корень-Copy-7" transform="translate(296 438)"><rect width="147" height="49" x="1" y="1" fill="#FBF2EC" stroke="#DBAF88" stroke-width="2" rx="24.5"/><text id="Wrong-password" fill="#AF6E24" font-family="OpenSans-Regular, Open Sans" font-size="14" font-weight="normal"><tspan x="25.803" y="29">كلمة مرور خاطئة</tspan></text></g><path id="Line" fill="#C06334" fill-rule="nonzero" d="M222 35v23.049l8 .001-9.5 19-9.5-19 8-.001V35z"/><path id="Path-1218" fill="#C06334" fill-rule="nonzero" d="M131.691 131.367v3l-59.302-.001v85.181h8l-9.5 19-9.5-19h8v-88.18z"/><path id="Path-1218-Copy-2" fill="#C06334" fill-rule="nonzero" d="M281.691 326.367v3l-59.307-.001-.319 90.139 8 .029-9.567 18.966-9.433-19.033 8 .027.324-91.633.005-1.494z"/><g id="Rectangle-354-+-Каково-“официальное”" transform="translate(127 81)"><path id="Rectangle-354" fill="#FBF2EC" stroke="#DBAF88" stroke-width="2" d="M93.61 1.144 185.161 52l-91.55 50.856L2.058 52z"/><text id="Who's-there?" fill="#AF6E24" font-family="OpenSans-Regular, Open Sans" font-size="14" font-weight="normal"><tspan x="57.305" y="55">من هناك ؟</tspan></text></g><g id="Rectangle-354-+-Каково-“официальное”-Copy" transform="translate(277 276)"><path fill="#FBF2EC" stroke="#DBAF88" stroke-width="2" d="M93.61 1.144 185.161 52l-91.55 50.856L2.058 52z"/><text id="Password?" fill="#AF6E24" font-family="OpenSans-Regular, Open Sans" font-size="14" font-weight="normal"><tspan x="58.89" y="55">كلمة المرور؟</tspan></text></g><g id="Rectangle-356-+-Отмена" transform="translate(39 191)"><path id="Rectangle-356" fill="#FFF" d="M0 2h60v20H0z"/><text id="Cancel" fill="#AF6E24" font-family="OpenSans-Regular, Open Sans" font-size="14" font-weight="normal"><tspan x="20" y="15">الغ</tspan></text></g><g id="Rectangle-356-+-Отмена-Copy"><path fill="#FFF" d="M189 386h60v20h-60z"/><text fill="#AF6E24" font-family="OpenSans-Regular, Open Sans" font-size="14" transform="translate(189 384)"><tspan x="20" y="15">الغ</tspan></text></g><g id="Rectangle-356-Copy-+-“Админ”" transform="translate(341 191)"><path id="Rectangle-356-Copy" fill="#FFF" d="M0 2h60v20H0z"/><text id="Admin" fill="#AF6E24" font-family="OpenSans-Regular, Open Sans" font-size="14" font-weight="normal"><tspan x="7.703" y="15">Admin</tspan></text></g><g id="Rectangle-356-Copy-+-“Админ”-Copy" transform="translate(493 384)"><path fill="#FFF" d="M7 2h60v20H7z"/><text id="TheMaster" fill="#AF6E24" font-family="OpenSans-Regular, Open Sans" font-size="14" font-weight="normal"><tspan x=".096" y="15">TheMaster</tspan></text></g><path fill="#C06334" fill-rule="nonzero" d="M223 182v42.56h8l-9.5 19-9.5-19h8V182z"/><path id="Line-Copy-2" fill="#C06334" fill-rule="nonzero" d="M373 377v42.56h8l-9.5 19-9.5-19h8V377z"/><g id="Rectangle-356-Copy-2-+-“Админ”-Copy" transform="translate(191 191)"><path id="Rectangle-356-Copy-2" fill="#FFF" d="M0 2h60v20H0z"/><text id="Other" fill="#AF6E24" font-family="OpenSans-Regular, Open Sans" font-size="14" font-weight="normal"><tspan x="0" y="15">شخص اخر</tspan></text></g><g id="Rectangle-356-Copy-2-+-“Админ”-Copy-Copy"><path fill="#FFF" d="M341 386h60v20h-60z"/><text fill="#AF6E24" font-family="OpenSans-Regular, Open Sans" font-size="14" transform="translate(341 384)"><tspan x="9.996" y="15">نص اخر</tspan></text></g></g></g></svg>